<?xml version="1.0" standalone="no"?><!DOCTYPE svg PUBLIC "-//W3C//DTD SVG 1.1//EN" "http://www.w3.org/Graphics/SVG/1.1/DTD/svg11.dtd"><svg t="1715784545993" class="icon" viewBox="0 0 1126 1024" version="1.1" xmlns="http://www.w3.org/2000/svg" p-id="1616" xmlns:xlink="http://www.w3.org/1999/xlink" width="219.921875" height="200"><path d="M762.88 204.8h25.6c20.48 0 40.96-15.36 40.96-40.96 0-20.48-15.36-40.96-40.96-40.96h-25.6c-20.48 0-40.96 15.36-40.96 40.96 0 20.48 20.48 40.96 40.96 40.96zM629.76 568.32c20.48 0 40.96-15.36 40.96-40.96V455.68h76.8c20.48 0 40.96-15.36 40.96-40.96 0-20.48-15.36-40.96-40.96-40.96H665.6V302.08c0-20.48-15.36-40.96-40.96-40.96-20.48 0-40.96 15.36-40.96 40.96v76.8H512c-20.48 0-40.96 15.36-40.96 40.96 0 20.48 15.36 40.96 40.96 40.96h76.8v76.8c0 15.36 20.48 30.72 40.96 30.72zM803.84 768c-71.68 0-128 56.32-128 128s56.32 128 128 128 128-56.32 128-128-56.32-128-128-128z m0 194.56c-35.84 0-66.56-30.72-66.56-66.56s30.72-66.56 66.56-66.56c35.84 0 66.56 30.72 66.56 66.56s-30.72 66.56-66.56 66.56zM424.96 768c-71.68 0-128 56.32-128 128S353.28 1024 424.96 1024s128-56.32 128-128S496.64 768 424.96 768z m0 194.56c-35.84 0-66.56-30.72-66.56-66.56s30.72-66.56 66.56-66.56c35.84 0 66.56 30.72 66.56 66.56s-30.72 66.56-66.56 66.56z" p-id="1617"></path><path d="M1049.6 128h-122.88c-20.48 0-40.96 15.36-40.96 40.96 0 15.36 15.36 35.84 35.84 35.84H1044.48s-102.4 399.36-107.52 404.48c-5.12 20.48-20.48 30.72-40.96 30.72h-563.2c-20.48 0-35.84-25.6-40.96-46.08 0-15.36-51.2-389.12-51.2-389.12H645.12c20.48 0 40.96-15.36 40.96-40.96 0-20.48-15.36-40.96-40.96-40.96H225.28l-5.12-56.32C215.04 30.72 179.2 0 143.36 0h-102.4C15.36 0 0 15.36 0 40.96c0 20.48 15.36 40.96 40.96 40.96h102.4l76.8 527.36c0 56.32 51.2 107.52 112.64 107.52h568.32c46.08 0 87.04-10.24 107.52-76.8l107.52-419.84c25.6-71.68-25.6-92.16-66.56-92.16z" p-id="1618"></path></svg>