<?xml version="1.0" standalone="no"?><!DOCTYPE svg PUBLIC "-//W3C//DTD SVG 1.1//EN" "http://www.w3.org/Graphics/SVG/1.1/DTD/svg11.dtd"><svg t="1716181611761" class="icon" viewBox="0 0 1024 1024" version="1.1" xmlns="http://www.w3.org/2000/svg" p-id="7438" xmlns:xlink="http://www.w3.org/1999/xlink" width="200" height="200"><path d="M509.290014 963.764706H36.563426A36.864 36.864 0 0 1 0.000602 926.659765V86.979765C0.000602 39.032471 38.972838 0 86.859896 0h558.863059c23.009882 0 44.574118 9.035294 60.717177 25.298824 16.143059 16.384 24.997647 38.309647 24.997647 61.680941v134.505411h133.722353c23.009882 0 44.574118 9.035294 60.717176 25.359059 16.022588 16.263529 24.877176 38.068706 24.997647 61.31953-10.24 3.674353-20.359529 8.794353-29.936941 15.36l-27.045647 13.673411V307.2a24.094118 24.094118 0 0 0-24.094118-24.094118h-114.447058a24.094118 24.094118 0 0 0-24.094118 24.094118v112.037647l-56.621177 28.551529V84.329412a24.094118 24.094118 0 0 0-24.094117-24.094118H88.365779a24.094118 24.094118 0 0 0-24.094118 24.094118V903.529412h391.649883l43.851294 27.648 9.517176 5.421176V963.764706z m-205.522823-268.348235H180.706485V337.679059C180.706485 284.491294 223.654249 240.941176 276.962485 240.941176h148.540235c53.308235 0 96.256 43.550118 96.256 96.737883v187.271529l-60.235294 30.358588v-59.392L240.941779 496.037647v139.143529h87.943529c-12.769882 17.769412-21.142588 38.550588-25.118117 60.235295z m157.756235-273.468236V337.679059A36.321882 36.321882 0 0 0 425.50272 301.176471H276.962485A36.321882 36.321882 0 0 0 240.941779 337.679059V421.647059l220.581647 0.301176z m551.574588 3.794824c10.902588 5.421176 10.902588 16.263529 10.902588 32.647529l-109.568 543.804236c0 10.902588-5.421176 16.384-16.384 21.805176h-10.962823c-5.421176 0-10.962824 0-16.384-5.421176l-131.433412-87.04-65.776941 65.355294c-5.421176 5.421176-16.444235 10.842353-27.346824 5.421176a29.756235 29.756235 0 0 1-16.384-27.105882v-119.747765c0-5.421176 0-10.842353 5.421177-16.263529l262.987294-277.323294-11.023059-5.421177-290.273882 261.059765c-10.902588 10.902588-21.805176 10.902588-32.828236 5.421176l-131.373176-81.558588c-5.541647 0-11.023059-10.902588-11.023059-21.805176s5.421176-21.805176 16.384-21.805177l547.659294-272.022588c5.421176-5.421176 16.384-5.421176 27.407059 0z" fill="#4A4A4A" p-id="7439"></path></svg>