<svg width="6656" height="6655" xmlns="http://www.w3.org/2000/svg" xmlns:xlink="http://www.w3.org/1999/xlink" xml:space="preserve" overflow="hidden"><defs><clipPath id="clip0"><rect x="-18535" y="2808" width="6656" height="6655"/></clipPath><clipPath id="clip1"><rect x="-16253" y="4111" width="2092" height="4048"/></clipPath><clipPath id="clip2"><rect x="-16253" y="4111" width="2092" height="4048"/></clipPath></defs><g clip-path="url(#clip0)" transform="translate(18535 -2808)"><path d="M3785.26 4683.93C3786 5246.6 3526.97 5778.09 3083.35 6124.2 2912.12 6259.06 2717.76 6361.61 2509.78 6426.83 1741.26 6238.92 1085.33 5740.23 698.76 5049.94 488.278 4682.58 360.15 4273.87 323.246 3852.1 422.682 3658.95 555.13 3484.68 714.604 3337.16 1459.6 2652.85 2618.27 2702.05 3302.57 3447.05 3612.5 3784.46 3784.72 4225.78 3785.26 4683.93Z" fill="#00CC86" transform="matrix(1.00015 0 0 1 -18535 2808)"/><path d="M3328.94 6654.99C1491.3 6655.69 1.03414 5166.56 0.331504 3328.92-0.371135 1491.28 1488.76 1.0151 3326.4 0.312464 5164.03-0.390175 6654.3 1488.74 6655 3326.38 6655.33 4178.72 6328.55 4998.69 5742.05 5617.17 5681.67 5680.62 5581.29 5683.1 5517.85 5622.72 5454.41 5562.34 5451.93 5461.96 5512.31 5398.52 6651.58 4193.6 6598.37 2293.25 5393.44 1153.97 4188.52 14.6954 2288.17 67.9128 1148.89 1272.84 9.61842 2477.76 62.8358 4378.11 1267.76 5517.38 2217.15 6415.05 3638.07 6595.7 4781.88 5964.17 4858.01 5920.41 4955.19 5946.66 4998.95 6022.79 5042.7 6098.92 5016.45 6196.11 4940.32 6239.86 4447.52 6513.72 3892.73 6656.65 3328.94 6654.99Z" fill="#492F5D" transform="matrix(1.00015 0 0 1 -18535 2808)"/><path d="M5547.17 3327.65C5459.66 3327.65 5388.72 3256.71 5388.72 3169.2 5388.72 2031.62 4466.53 1109.42 3328.94 1109.42 3241.43 1109.41 3170.51 1038.45 3170.53 950.948 3170.55 863.466 3241.46 792.553 3328.94 792.535 4641.54 792.535 5705.61 1856.61 5705.61 3169.2 5705.61 3256.71 5634.67 3327.65 5547.17 3327.65Z" fill="#492F5D" transform="matrix(1.00015 0 0 1 -18535 2808)"/><path d="M5547.17 3327.65C5530.5 3327.33 5513.97 3324.66 5498.05 3319.73L5022.71 3161.28C4939.58 3133.72 4894.54 3043.98 4922.1 2960.85 4949.67 2877.72 5039.4 2832.67 5122.53 2860.24L5597.87 3018.68C5681 3046 5726.25 3135.53 5698.93 3218.67 5677.42 3284.13 5616.07 3328.19 5547.17 3327.65ZM3328.94 5704.32C2016.34 5704.32 952.271 4640.25 952.271 3327.65 952.289 3240.14 1023.24 3169.22 1110.75 3169.24 1198.23 3169.25 1269.14 3240.17 1269.16 3327.65 1269.16 4465.23 2191.36 5387.43 3328.94 5387.43 3416.45 5387.41 3487.4 5458.33 3487.42 5545.84 3487.43 5633.35 3416.51 5704.3 3329 5704.32 3328.98 5704.32 3328.96 5704.32 3328.94 5704.32Z" fill="#492F5D" transform="matrix(1.00015 0 0 1 -18535 2808)"/><path d="M1586.05 3644.54C1569.39 3644.22 1552.85 3641.55 1536.93 3636.62L1061.6 3478.17C978.467 3450.61 933.421 3360.87 960.986 3277.74 988.55 3194.61 1078.29 3149.56 1161.42 3177.13L1636.75 3335.57C1719.89 3362.89 1765.14 3452.42 1737.82 3535.56 1716.31 3601.02 1654.96 3645.08 1586.05 3644.54Z" fill="#492F5D" transform="matrix(1.00015 0 0 1 -18535 2808)"/><g clip-path="url(#clip1)"><g clip-path="url(#clip2)"><g><path d="M2945.4 265.086C1465.1 265.086 265.086 1465.1 265.086 2945.4 265.086 4425.7 1465.1 5625.71 2945.4 5625.71 4425.7 5625.71 5625.71 4425.7 5625.71 2945.4 5624.09 1465.78 4425.02 266.709 2945.4 265.086ZM2945.4 5225.14C1686.33 5225.14 665.66 4204.47 665.66 2945.4 665.66 1686.33 1686.33 665.66 2945.4 665.66 4204.47 665.66 5225.14 1686.33 5225.14 2945.4 5223.69 4203.87 4203.87 5223.69 2945.4 5225.14Z" fill="#556FB5" transform="matrix(1 0 0 1.00025 -18163.9 3149.08)"/><path d="M3145.69 2762.55 3145.69 2171.67C3265.96 2212.66 3354.23 2316.08 3375.81 2441.29 3392.61 2550.63 3494.86 2625.64 3604.2 2608.84 3709.51 2592.65 3783.71 2496.85 3773.06 2390.84 3724.25 2065.47 3470.53 1809.06 3145.69 1756.84L3145.69 1537.5C3145.69 1426.88 3056.02 1337.21 2945.4 1337.21 2834.78 1337.21 2745.11 1426.88 2745.11 1537.5L2745.11 1756.43C2257.47 1841.49 2121.04 2227.69 2121.04 2443.65 2121.04 2546.89 2169.49 2876.62 2745.11 3066.96L2745.11 3716.74C2549.95 3646.38 2459.11 3485.88 2459.11 3427.8 2459.11 3317.18 2369.44 3227.51 2258.83 3227.51 2148.21 3227.51 2058.54 3317.18 2058.54 3427.8 2058.54 3691.23 2315.08 4045.27 2745.02 4131.75L2745.02 4353.24C2745.02 4463.86 2834.7 4553.53 2945.31 4553.53 3055.93 4553.53 3145.6 4463.86 3145.6 4353.24L3145.6 4137.7C3615.42 4072.19 3832.08 3776.92 3832.08 3499.93 3832.14 3028.11 3409.86 2841.69 3145.69 2762.55ZM2521.59 2443.74C2521.59 2387.48 2541.64 2231.26 2745.14 2167.67L2745.14 2637.75C2573.13 2558.32 2523.29 2474.55 2521.59 2443.74ZM3145.69 3731.65 3145.69 3187.42C3431.39 3301.94 3431.69 3431.21 3431.69 3499.9 3431.66 3609.97 3320.58 3695.24 3145.69 3731.65Z" fill="#F19149" transform="matrix(1 0 0 1.00025 -18163.9 3149.08)"/></g></g></g></g></svg>